<svg id="Lager_1" data-name="Lager 1" xmlns="http://www.w3.org/2000/svg" viewBox="0 0 330.83 124.69"><defs><style>.cls-1{fill:#fff;}</style></defs><path class="cls-1" d="M63,87.69c-.44,0-.84,0-1.2,0A29.33,29.33,0,0,0,53,89.09a35,35,0,0,0-8.5,4,25.62,25.62,0,0,0-7.26,7,13.78,13.78,0,0,0-2.6,7.76q0,3.89,2,5.71c1.32,1.21,3.42,1.82,6.32,1.82a.5.5,0,0,0,0-.19,3.37,3.37,0,0,0-.19-.43,8.55,8.55,0,0,1-.66-2.1,14.62,14.62,0,0,1-.19-2.56,18.83,18.83,0,0,1,2.79-10.4,17,17,0,0,1,8.08-6.52L41.42,145.88H52.6L64.94,87.81Z" transform="translate(-34.59 -87.65)"/><path class="cls-1" d="M245.15,102.87a6,6,0,0,0,4.38-1.78,5.85,5.85,0,0,0,1.83-4.35,6.23,6.23,0,0,0-6.21-6.21,5.87,5.87,0,0,0-4.35,1.82A6.06,6.06,0,0,0,239,96.74a6.09,6.09,0,0,0,6.14,6.13Z" transform="translate(-34.59 -87.65)"/><path class="cls-1" d="M331.33,132a19.89,19.89,0,0,1-3.69,7.18,14.33,14.33,0,0,1-6.09,3.92l7.68-36H318.05l-.85,4v-.47a3.28,3.28,0,0,0-1.63-2.91,8.72,8.72,0,0,0-4.66-1,15.08,15.08,0,0,0-8.31,2.44,22.18,22.18,0,0,0-6.68,7,34.93,34.93,0,0,0-3.64,8.62,34.47,34.47,0,0,0-1.3,8.39,14.87,14.87,0,0,1-2.66,4.34,4.72,4.72,0,0,1-3.34,1.32,3,3,0,0,1-2.33-.82,3.39,3.39,0,0,1-.78-2.44,15.67,15.67,0,0,1,.31-2.72q.31-1.64,1.32-5.59,1.25-5,1.67-7.49a24.57,24.57,0,0,0,.43-4.23c0-2.85-.75-5-2.25-6.53a8.63,8.63,0,0,0-6.37-2.25,11.16,11.16,0,0,0-4.89,1.09,13.58,13.58,0,0,0-4.19,3.26l.85-4H257.57l-5.88,27.72a10.33,10.33,0,0,1-1.65,2.14,5.85,5.85,0,0,1-4.12,1.9,3.62,3.62,0,0,1-2.44-.66,2.86,2.86,0,0,1-.74-2.21,9.46,9.46,0,0,1,.08-1.21c.05-.38.13-.81.23-1.28l5.59-26.4H237.46L232.18,132H232a13.38,13.38,0,0,1-2.64,5,4.85,4.85,0,0,1-3.65,1.79,3.65,3.65,0,0,1-2.45-.66,2.86,2.86,0,0,1-.74-2.21,9.46,9.46,0,0,1,.08-1.21c.05-.38.13-.81.23-1.28l8.93-41.92L220.3,93.09,216.5,111v-.32a3.28,3.28,0,0,0-1.63-2.91,8.72,8.72,0,0,0-4.66-1,15.08,15.08,0,0,0-8.31,2.44,22.18,22.18,0,0,0-6.68,7,34.55,34.55,0,0,0-3.64,8.62,33.77,33.77,0,0,0-1.33,9.08c0,.22,0,.4,0,.61a10.65,10.65,0,0,1-1.66,2.57,4.85,4.85,0,0,1-3.65,1.79,3.65,3.65,0,0,1-2.45-.66,2.86,2.86,0,0,1-.74-2.21,9.46,9.46,0,0,1,.08-1.21c0-.38.13-.81.23-1.28l5.59-26.4H176.51L171.23,132a13.1,13.1,0,0,1-2.6,5.08,4.76,4.76,0,0,1-3.61,1.75,2,2,0,0,1-1.74-.82,4,4,0,0,1-.59-2.36c0-.37,0-.71,0-1a6.76,6.76,0,0,1,.2-1.13l5.59-26.4H157.34L152.06,132c-.21,1-.36,1.9-.47,2.75,0,.13,0,.24,0,.36a10.79,10.79,0,0,1-1.44,1.82,5.85,5.85,0,0,1-4.12,1.9,3.62,3.62,0,0,1-2.44-.66,2.82,2.82,0,0,1-.74-2.21,9.49,9.49,0,0,1,.07-1.21c.06-.38.13-.81.24-1.28l8.93-41.92-11.49,1.55L132.26,132h0a28,28,0,0,1-7,6.17,13.82,13.82,0,0,1-6.71,1.67c-2.13,0-3.59-.49-4.39-1.48s-1.2-2.66-1.2-5a39,39,0,0,1,3.26-15q3.25-7.87,6.67-7.88a1.81,1.81,0,0,1,1.63.82,4.18,4.18,0,0,1,.55,2.36,10.84,10.84,0,0,1-.24,2.18,14.87,14.87,0,0,1-.69,2.4,5.67,5.67,0,0,0,1.39.7,4.11,4.11,0,0,0,1.32.24,3.54,3.54,0,0,0,3-1.52,6.82,6.82,0,0,0,1.13-4.15,6.58,6.58,0,0,0-2.17-5.32q-2.18-1.83-6.45-1.83a17.12,17.12,0,0,0-8.89,2.37,20.23,20.23,0,0,0-6.87,7,33.45,33.45,0,0,0-3.77,8.85,35.94,35.94,0,0,0-1.36,9.4c0,.05,0,.11,0,.16a12.24,12.24,0,0,1-2.18,3.33,4.68,4.68,0,0,1-3.34,1.32,3.06,3.06,0,0,1-2.33-.82,3.43,3.43,0,0,1-.77-2.44,14.75,14.75,0,0,1,.31-2.72q.3-1.64,1.32-5.59c.83-3.36,1.38-5.86,1.67-7.49a25.49,25.49,0,0,0,.42-4.23c0-2.85-.75-5-2.25-6.53a8.6,8.6,0,0,0-6.36-2.25,11.2,11.2,0,0,0-4.9,1.09,13.58,13.58,0,0,0-4.19,3.26l.86-4H68.52l-8.23,38.82H71.47L76.75,121a14.65,14.65,0,0,1,2.6-5.24,4.51,4.51,0,0,1,3.45-1.9,2.4,2.4,0,0,1,2.1,1,5.22,5.22,0,0,1,.7,3,22.12,22.12,0,0,1-.31,3.26c-.21,1.29-.68,3.42-1.4,6.37s-1.21,5.28-1.44,6.67a22.44,22.44,0,0,0-.35,3.5,8.55,8.55,0,0,0,2.41,6.4,9.19,9.19,0,0,0,6.75,2.37,11.45,11.45,0,0,0,8.43-3.57,19.75,19.75,0,0,0,2.56-3.28,9.76,9.76,0,0,0,2.25,3.74q3.07,3.12,9,3.11a20.42,20.42,0,0,0,11.57-3.53,29.46,29.46,0,0,0,6.53-6.2c0,.14,0,.28,0,.41a9.9,9.9,0,0,0,2.21,6.88,7.78,7.78,0,0,0,6.09,2.44,14.24,14.24,0,0,0,9.63-3.65,17.93,17.93,0,0,0,2.27-2.4,8.38,8.38,0,0,0,1.81,3.61,7.79,7.79,0,0,0,6.09,2.44,11.64,11.64,0,0,0,6.41-1.82,16.66,16.66,0,0,0,5.08-5.56,8.23,8.23,0,0,0,2.33,5.48,7.49,7.49,0,0,0,5.36,1.9,13.17,13.17,0,0,0,9.16-3.61,18.2,18.2,0,0,0,2.92-3.45,10.7,10.7,0,0,0,2,3.8,9.4,9.4,0,0,0,7.57,3.26,11.62,11.62,0,0,0,6.29-1.79,17,17,0,0,0,5.2-5.35,7.84,7.84,0,0,0,2.45,4.93,7.53,7.53,0,0,0,5.16,1.74,13.42,13.42,0,0,0,9.36-3.49,18.44,18.44,0,0,0,2.69-3.12,8.8,8.8,0,0,0,2,4.64,7.82,7.82,0,0,0,6.1,2.44,14.27,14.27,0,0,0,9.63-3.65c.22-.19.43-.4.64-.61l-.8,3.79h11.18L265.8,121a14.82,14.82,0,0,1,2.6-5.24,4.51,4.51,0,0,1,3.46-1.9,2.37,2.37,0,0,1,2.09,1,5.14,5.14,0,0,1,.7,3,20.83,20.83,0,0,1-.31,3.26c-.21,1.29-.67,3.42-1.4,6.37s-1.2,5.28-1.43,6.67a21.28,21.28,0,0,0-.35,3.5,8.55,8.55,0,0,0,2.41,6.4,9.19,9.19,0,0,0,6.75,2.37,11.43,11.43,0,0,0,8.42-3.57,19.47,19.47,0,0,0,2.87-3.8,11,11,0,0,0,2.1,4.11,9.4,9.4,0,0,0,7.57,3.26,11.53,11.53,0,0,0,5-1.09,14.62,14.62,0,0,0,4.35-3.18l-.93,4.12q-6.37,1.94-9.51,4.85a8.91,8.91,0,0,0-3.15,6.71,6.88,6.88,0,0,0,2.37,5.52,9.46,9.46,0,0,0,6.33,2,12.63,12.63,0,0,0,9.08-3.34q3.49-3.35,4.89-9.86l1.17-5.59a18.1,18.1,0,0,0,8.66-5,23.94,23.94,0,0,0,5.08-9.47ZM212,132v.38a9.38,9.38,0,0,1-2.56,4.62,5.46,5.46,0,0,1-3.8,1.83,3.19,3.19,0,0,1-3-1.51,9.52,9.52,0,0,1-.85-4.55,33.51,33.51,0,0,1,3.3-14.13q3.28-7.14,7.57-7.14a3.05,3.05,0,0,1,2.13.74,3.47,3.47,0,0,1,1.05,2Zm96.44,20.34a15,15,0,0,1-1.95,5c-.82,1.24-1.68,1.86-2.56,1.86a2.54,2.54,0,0,1-1.86-.78,2.43,2.43,0,0,1-.78-1.78,4.6,4.6,0,0,1,1.87-3.54,19.77,19.77,0,0,1,5.74-3.06Zm4.11-19.57a9,9,0,0,1-2.52,4.35,5.45,5.45,0,0,1-3.69,1.71,3.19,3.19,0,0,1-3-1.51,9.52,9.52,0,0,1-.85-4.55,33.51,33.51,0,0,1,3.3-14.13q3.3-7.14,7.57-7.14a3.14,3.14,0,0,1,2.25.81,3,3,0,0,1,.93,2.06Z" transform="translate(-34.59 -87.65)"/><path class="cls-1" d="M255.09,178.11a6,6,0,0,0-1.48-4.16,4.92,4.92,0,0,0-3.88-1.67,9.09,9.09,0,0,0-4,1,29.59,29.59,0,0,0-5.39,3.85l1-4.82H230.17l-5.35,25.2a19.18,19.18,0,0,1-6.42,5.36,18.15,18.15,0,0,1-8.42,2q-4.81,0-7.07-2.83t-2.25-9.28a60.69,60.69,0,0,1,.93-10.29,66.59,66.59,0,0,1,2.64-10.36,37.62,37.62,0,0,1,5.83-11.45q3.33-4.16,6.75-4.16a4.31,4.31,0,0,1,4.74,4.74,9.37,9.37,0,0,1-1.09,4.31A6,6,0,0,1,218,168.4a5.66,5.66,0,0,0,2,1.52,6,6,0,0,0,2.44.5,4.79,4.79,0,0,0,4-1.82,8.65,8.65,0,0,0,1.4-5.32,9.29,9.29,0,0,0-3.38-7.73q-3.37-2.67-9.59-2.68A20.44,20.44,0,0,0,203,156.56a29.44,29.44,0,0,0-9,10.75,53.17,53.17,0,0,0-4.51,12.5,59.54,59.54,0,0,0-1.63,13.44q0,10,4,14.55t13,4.55A24.77,24.77,0,0,0,218,208.43a22.2,22.2,0,0,0,5.49-4.73l-1.57,7.4h11.19l6.21-29.5a14.52,14.52,0,0,1,3.18-2.41,5.84,5.84,0,0,1,2.49-.54,1.09,1.09,0,0,1,.85.35,3.59,3.59,0,0,1,.54,1.59,4.24,4.24,0,0,0,1.05,2.56,3.07,3.07,0,0,0,2.06.62,5.33,5.33,0,0,0,4-1.63A5.63,5.63,0,0,0,255.09,178.11Z" transform="translate(-34.59 -87.65)"/><path class="cls-1" d="M362.15,197.21a17.82,17.82,0,0,1-3.18,5.51,4.68,4.68,0,0,1-3.34,1.32,3.06,3.06,0,0,1-2.33-.82,3.43,3.43,0,0,1-.77-2.44,14.75,14.75,0,0,1,.31-2.72q.3-1.63,1.32-5.59,1.23-5,1.67-7.49a25.49,25.49,0,0,0,.42-4.23c0-2.85-.75-5-2.25-6.53a8.6,8.6,0,0,0-6.36-2.25,11.2,11.2,0,0,0-4.9,1.09,13.58,13.58,0,0,0-4.19,3.26l4.19-19.57-11.49,1.56L323,197.21h-.71c-.73.62-1.58,1.26-2.56,1.94s-2,1.32-3,1.94a10.67,10.67,0,0,0,.23-1.32,15.43,15.43,0,0,0,.08-1.63c0-.83,0-1.68-.08-2.57s-.15-2.4-.31-4.58c-.31-3.77-.57-7.27-.78-10.48s-.38-6.75-.54-10.63l-11.49,1.55q-2.32,7.45-4.62,12.85a106,106,0,0,1-4.93,10.13,6.92,6.92,0,0,0-3,2.84,8.45,8.45,0,0,0-1.17,4.38,9.51,9.51,0,0,0,.06,1.08A4.63,4.63,0,0,1,287,204a3.65,3.65,0,0,1-2.45-.66,2.86,2.86,0,0,1-.74-2.21,9.46,9.46,0,0,1,.08-1.21c.06-.38.13-.81.24-1.28l5.59-26.4H278.54l-5.28,24.93a13.11,13.11,0,0,1-2.61,5.08,4.76,4.76,0,0,1-3.6,1.75,2,2,0,0,1-1.75-.82,4,4,0,0,1-.58-2.36c0-.37,0-.71,0-1.05a6.76,6.76,0,0,1,.2-1.13l5.59-26.4H259.36l-5.28,24.93c-.21,1-.36,1.9-.47,2.75a20,20,0,0,0-.15,2.29,9.9,9.9,0,0,0,2.21,6.87,7.82,7.82,0,0,0,6.1,2.45,11.54,11.54,0,0,0,6.4-1.83,16.65,16.65,0,0,0,5.09-5.55,8.14,8.14,0,0,0,2.33,5.48,7.47,7.47,0,0,0,5.35,1.9A13.17,13.17,0,0,0,290.1,208a17,17,0,0,0,1.32-1.36,10,10,0,0,0,1.75,2.14,11.71,11.71,0,0,0,8.27,2.83,19.6,19.6,0,0,0,6.83-1.2,13.59,13.59,0,0,0,5.36-3.46,55,55,0,0,0,6.56-4.54c.72-.58,1.39-1.21,2.06-1.83L320,211.1h11.18l5.36-25.23a11.64,11.64,0,0,1,2.29-4.62c1.17-1.47,2.37-2.21,3.61-2.21a2.49,2.49,0,0,1,2.14,1,5,5,0,0,1,.74,2.95,22.12,22.12,0,0,1-.31,3.26c-.21,1.29-.68,3.42-1.4,6.37s-1.21,5.27-1.44,6.67a22.44,22.44,0,0,0-.35,3.5,8.55,8.55,0,0,0,2.41,6.4,9.19,9.19,0,0,0,6.75,2.37A11.45,11.45,0,0,0,359.4,208q3.53-3.57,6-10.79Zm-58.23,6.36a6.52,6.52,0,0,1-5,1.87,4.53,4.53,0,0,1-3.6-1.29,4.31,4.31,0,0,1-.91-2c.23-.44.45-.89.67-1.36a3,3,0,0,0,1.21.23,3.09,3.09,0,0,0,2.4-1.16,4,4,0,0,0,1-2.64,2.89,2.89,0,0,0-.46-1.64,3.15,3.15,0,0,0-1.32-1.08c1.6-3.06,2.88-5.73,3.84-8s1.77-4.51,2.45-6.64c.15,2.13.31,4.12.46,6s.36,4,.62,6.45c.16,1.76.26,3,.31,3.76s.08,1.49.08,2.22A7.42,7.42,0,0,1,303.92,203.57Z" transform="translate(-34.59 -87.65)"/></svg>